<svg xmlns="http://www.w3.org/2000/svg" width="80" height="80" viewBox="0 0 80 80">
  <g id="Group_7" data-name="Group 7" transform="translate(-1358 -823)">
    <circle id="Ellipse_5" data-name="Ellipse 5" cx="40" cy="40" r="40" transform="translate(1358 823)" fill="#8e4a19"/>
    <g id="Icon_ionic-ios-cart" data-name="Icon ionic-ios-cart" transform="translate(1373.996 842.412)">
      <path id="Path_2" data-name="Path 2" d="M14.323,30.505a2.38,2.38,0,1,1-2.38-2.38,2.38,2.38,0,0,1,2.38,2.38Z" transform="translate(2.537 9.702)" fill="#fff3e2"/>
      <path id="Path_3" data-name="Path 3" d="M30.108,30.505a2.38,2.38,0,1,1-2.38-2.38,2.38,2.38,0,0,1,2.38,2.38Z" transform="translate(9.018 9.702)" fill="#fff3e2"/>
      <path id="Path_4" data-name="Path 4" d="M44.611,11.267a.583.583,0,0,0-.516-.417l-32.3-3.124a.994.994,0,0,1-.744-.466,10.1,10.1,0,0,0-1.21-1.845c-.764-.932-2.2-.9-4.84-.922a1.445,1.445,0,0,0-1.617,1.4,1.418,1.418,0,0,0,1.547,1.4,13.178,13.178,0,0,1,2.579.188c.466.139.843.9.982,1.567a.036.036,0,0,0,.01.03c.02.119.2,1.012.2,1.022l3.967,20.986A7.713,7.713,0,0,0,14.1,34.623a3.958,3.958,0,0,0,3.263,1.607H40.832A1.41,1.41,0,0,0,42.26,34.9a1.382,1.382,0,0,0-1.389-1.448H17.346a1.152,1.152,0,0,1-.823-.278A4.451,4.451,0,0,1,15.383,30.6l-.426-2.351a.054.054,0,0,1,.04-.06l27.542-4.661a.58.58,0,0,0,.486-.516l1.587-11.485A.566.566,0,0,0,44.611,11.267Z" transform="translate(0 0)" fill="#fff3e2"/>
    </g>
  </g>
</svg>
